####
#
# OBJ File Generated by Meshlab
#
####
# Object cube.obj
#
# Vertices: 8
# Faces: 6
#
####
vn -1.0000000 -1.0000000 -1.0000000
v -1.0000000 -1.0000000 1.0000000
vn 1.0000000 -2.0000000 -2.0000000
v 1.0000000 -1.0000000 1.0000000
vn -2.0000000 1.0000000 -2.0000000
v -1.0000000 1.0000000 1.0000000
vn 2.0000000 2.0000000 -1.0000000
v 1.0000000 1.0000000 1.0000000
vn -2.0000000 -2.0000000 1.0000000
v -1.0000000 -1.0000000 3.0000000
vn 2.0000000 -1.0000000 2.0000000
v 1.0000000 -1.0000000 3.0000000
vn -1.0000000 2.0000000 2.0000000
v -1.0000000 1.0000000 3.0000000
vn 1.0000000 1.0000000 1.0000000
v 1.0000000 1.0000000 3.0000000

f 4//4 2//2 1//1 3//3
f 7//7 3//3 1//1 5//5
f 6//6 5//5 1//1 2//2
f 5//5 6//6 8//8 7//7
f 3//3 7//7 8//8 4//4
f 2//2 4//4 8//8 6//6
# 6 faces, 0 coords texture

# End of File
