####
#
# OBJ File Generated by Meshlab
#
####
# Object top.obj
#
# Vertices: 8
# Faces: 6
#
####
vn -0.5773503 -0.5773503 -0.5773503
v -180.0000000 708.5000000 -180.0000305
vn 0.3333333 -0.6666667 -0.6666667
v 180.0000000 708.5000000 -180.0000305
vn -0.6666667 0.3333333 -0.6666667
v -180.0000000 711.5000000 -180.0000305
vn 0.6666667 0.6666667 -0.3333333
v 180.0000000 711.5000000 -180.0000305
vn -0.6666667 -0.6666667 0.3333333
v -180.0000000 708.5000000 180.0000000
vn 0.6666667 -0.3333333 0.6666667
v 180.0000000 708.5000000 180.0000000
vn -0.3333333 0.6666667 0.6666667
v -180.0000000 711.5000000 180.0000000
vn 0.5773503 0.5773503 0.5773503
v 180.0000000 711.5000000 180.0000000
# 8 vertices, 0 vertices normals

f 4//4 2//2 1//1 3//3
f 7//7 3//3 1//1 5//5
f 6//6 5//5 1//1 2//2
f 5//5 6//6 8//8 7//7
f 3//3 7//7 8//8 4//4
f 2//2 4//4 8//8 6//6
# 6 faces, 0 coords texture

# End of File
